<?xml version="1.0" standalone="no"?>
<!DOCTYPE svg PUBLIC "-//W3C//DTD SVG 20010904//EN"
 "http://www.w3.org/TR/2001/REC-SVG-20010904/DTD/svg10.dtd">
<svg version="1.0" xmlns="http://www.w3.org/2000/svg"
 width="2160.000000pt" height="2160.000000pt" viewBox="0 0 2160.000000 2160.000000"
 preserveAspectRatio="xMidYMid meet">
<metadata>
Created by potrace 1.14, written by Peter Selinger 2001-2017
</metadata>
<g transform="translate(0.000000,2160.000000) scale(0.100000,-0.100000)"
fill="#000000" stroke="none">
<path d="M130 10930 l0 -10670 10670 0 10670 0 0 10670 0 10670 -10670 0
-10670 0 0 -10670z m13571 1892 c1387 -2408 2527 -4382 2533 -4389 8 -9 29 1
86 45 305 230 512 589 559 972 8 57 11 1060 11 3147 l0 3063 1090 0 1090 0 0
-3125 c0 -3325 1 -3228 -46 -3510 -101 -609 -346 -1153 -740 -1644 -245 -305
-594 -622 -881 -801 -42 -26 -70 -50 -68 -58 3 -9 709 -1237 1262 -2194 2 -5
-3844 -8 -8546 -8 l-8551 0 0 2925 0 2926 1337 -4 c1459 -4 1388 -1 1683 -63
404 -85 816 -283 1165 -560 201 -160 461 -437 628 -668 13 -17 14 -17 28 5 9
13 1095 1897 2414 4187 2019 3503 2402 4160 2412 4147 6 -9 1146 -1986 2534
-4393z"/>
<path d="M10581 8950 c-315 -540 -571 -984 -568 -986 2 -2 515 -3 1141 -2
l1136 3 -556 970 c-306 534 -562 976 -569 983 -10 11 -124 -179 -584 -968z"/>
<path d="M3310 7240 l0 -1112 333 5 c256 3 354 8 427 22 262 48 452 146 622
323 140 146 226 295 276 481 23 86 26 115 26 276 1 167 -1 187 -27 279 -68
244 -236 495 -430 642 -83 63 -224 129 -344 161 -96 26 -104 27 -490 31 l-393
4 0 -1112z"/>
</g>
</svg>
